<?xml version="1.0" encoding="UTF-8" standalone="no"?>
<!-- Generator: Adobe Illustrator 16.0.0, SVG Export Plug-In . SVG Version: 6.00 Build 0)  -->

<svg
   xmlns:dc="http://purl.org/dc/elements/1.1/"
   xmlns:cc="http://creativecommons.org/ns#"
   xmlns:rdf="http://www.w3.org/1999/02/22-rdf-syntax-ns#"
   xmlns:svg="http://www.w3.org/2000/svg"
   xmlns="http://www.w3.org/2000/svg"
   xmlns:sodipodi="http://sodipodi.sourceforge.net/DTD/sodipodi-0.dtd"
   xmlns:inkscape="http://www.inkscape.org/namespaces/inkscape"
   version="1.1"
   id="Capa_1"
   x="0px"
   y="0px"
   width="84.460587"
   height="86.216087"
   viewBox="0 0 84.460584 86.216087"
   xml:space="preserve"
   inkscape:version="0.48.4 r9939"
   sodipodi:docname="mouse2.svg"
   inkscape:export-filename="/home/wchargin/Dropbox/School/14/cpe123/game/assets/keys/mouse.png"
   inkscape:export-xdpi="275.08725"
   inkscape:export-ydpi="275.08725"><metadata
     id="metadata4035"><rdf:RDF><cc:Work
         rdf:about=""><dc:format>image/svg+xml</dc:format><dc:type
           rdf:resource="http://purl.org/dc/dcmitype/StillImage" /><dc:title></dc:title></cc:Work></rdf:RDF></metadata><defs
     id="defs4033" /><sodipodi:namedview
     pagecolor="#ffffff"
     bordercolor="#666666"
     borderopacity="1"
     objecttolerance="10"
     gridtolerance="10"
     guidetolerance="10"
     inkscape:pageopacity="0"
     inkscape:pageshadow="2"
     inkscape:window-width="1353"
     inkscape:window-height="872"
     id="namedview4031"
     showgrid="false"
     fit-margin-top="0"
     fit-margin-left="0"
     fit-margin-right="0"
     fit-margin-bottom="0"
     inkscape:zoom="3.5225355"
     inkscape:cx="-32.232424"
     inkscape:cy="85.641166"
     inkscape:window-x="0"
     inkscape:window-y="0"
     inkscape:window-maximized="0"
     inkscape:current-layer="g3995" /><g
     id="g4037"
     transform="matrix(0.70711773,-0.70709584,0.70709584,0.70711773,26.648837,43.768789)"><g
       id="g3995"><path
         style="fill:#ffffff;stroke:none"
         d="m 4.4162363,12.331099 0.100369,-5.921771 c 0,0 0.100369,-2.4088562 2.7099632,-3.4125462 2.6095941,-1.0036901 8.8575645,-0.9033211 10.6642065,0.802952 1.806642,1.7062731 1.681181,15.0553512 1.681181,15.0553512 l -3.312177,5.319557 -6.3232474,0.501845 -4.2154982,-3.01107 -1.6059041,-4.01476 z"
         id="path4057"
         inkscape:connector-curvature="0"
         transform="matrix(0.70711772,0.70709583,-0.70709583,0.70711772,11.89141,-6.3412515)"
         sodipodi:nodetypes="ccsscccccc" /><path
         inkscape:connector-curvature="0"
         id="path3997"
         d="m 26.964,0.161 -1.003,0.511 c 0.074,0.146 0.162,0.484 0.08,0.585 C 26.038,1.259 25.687,1.641 23.693,1.025 22.171,0.553 20.92,0.637 19.975,1.272 19.308,1.72 18.934,2.355 18.723,2.895 L 18.285,2.464 18.225,2.414 C 15.02,0.052 12.074,-1.199 9.26,1.615 L 6.464,4.41 5.907,4.967 2.377,8.497 c -3.168,3.171 -3.168,8.326 0,11.495 3.169,3.168 8.325,3.168 11.494,-0.002 l 3.556,-3.553 0.526,-0.529 2.403,-2.401 C 23.234,10.628 22.334,7.224 19.847,4 L 19.824,3.969 19.628,3.779 c 0.086,-0.386 0.329,-1.137 0.975,-1.572 0.648,-0.435 1.576,-0.471 2.757,-0.105 1.863,0.577 2.989,0.539 3.542,-0.121 0.599,-0.713 0.119,-1.709 0.062,-1.82 z M 13.073,19.195 c -2.729,2.729 -7.17,2.729 -9.9,0 -2.73,-2.729 -2.729,-7.171 0,-9.9 L 6.121,6.347 c 1.225,2.499 2.722,4.642 4.455,6.373 2.028,2.028 3.992,3.104 5.316,3.656 l -2.819,2.819 z m 6.486,-6.484 -2.437,2.438 c -2.05,-0.73 -3.935,-1.946 -5.608,-3.619 V 11.528 C 9.266,9.282 7.914,6.736 7.243,5.226 l 2.814,-2.813 c 2.414,-2.414 4.71,-1.124 7.47,0.888 L 18.98,4.72 c 2.116,2.773 3.049,5.52 0.579,7.991 z"
         style="fill:#2d2d2d" /><path
         inkscape:connector-curvature="0"
         id="path3999"
         d="m 14.837,4.886 -2.533,2.531 c -0.731,0.731 -0.731,1.919 -10e-4,2.65 0.729,0.729 1.918,0.727 2.647,-0.002 l 2.533,-2.533 c 0.729,-0.731 0.73,-1.919 0,-2.646 -0.729,-0.731 -1.917,-0.731 -2.646,0 z m 1.85,1.849 -2.533,2.533 C 13.863,9.558 13.39,9.56 13.1,9.27 12.809,8.977 12.809,8.504 13.1,8.213 L 15.632,5.68 c 0.292,-0.29 0.765,-0.29 1.055,0 0.291,0.292 0.29,0.764 0,1.055 z"
         style="fill:#2d2d2d" /><g
         id="g4249"
         transform="matrix(0.86941225,0,0,0.86941225,-20.828314,-19.453)"
         style="fill:#e6e6e6;stroke:#b3b3b3;stroke-width:1.15020227;stroke-miterlimit:4;stroke-dasharray:none"
         inkscape:export-filename="/home/wchargin/Dropbox/School/14/cpe123/game/assets/keys/mouse.png"
         inkscape:export-xdpi="204.60219"
         inkscape:export-ydpi="204.60219"><path
           sodipodi:nodetypes="ccccc"
           id="path5478"
           d="M 39.996093,10.486224 71.815734,-0.12087025 61.209624,31.699099 57.673817,14.021484 39.996093,10.486224 z"
           style="fill:#e6e6e6;fill-rule:evenodd;stroke:#b3b3b3;stroke-width:1.15020227;stroke-linecap:round;stroke-linejoin:round;stroke-miterlimit:4;stroke-opacity:1;stroke-dasharray:none"
           inkscape:connector-curvature="0" /><path
           sodipodi:nodetypes="ccccc"
           id="path6250"
           d="M 13.126386,33.114057 2.5192906,1.2944158 34.33926,11.900525 16.661645,15.436333 13.126386,33.114057 z"
           style="fill:#e6e6e6;fill-rule:evenodd;stroke:#b3b3b3;stroke-width:1.15020227;stroke-linecap:round;stroke-linejoin:round;stroke-miterlimit:4;stroke-opacity:1;stroke-dasharray:none"
           inkscape:connector-curvature="0" /><path
           sodipodi:nodetypes="ccccc"
           id="path6252"
           d="M 59.795498,37.355975 70.402593,69.175616 38.582624,58.569507 56.260238,55.033699 59.795498,37.355975 z"
           style="fill:#e6e6e6;fill-rule:evenodd;stroke:#b3b3b3;stroke-width:1.15020227;stroke-linecap:round;stroke-linejoin:round;stroke-miterlimit:4;stroke-opacity:1;stroke-dasharray:none"
           inkscape:connector-curvature="0" /><path
           sodipodi:nodetypes="ccccc"
           id="path6254"
           d="M 34.339982,58.569572 2.5203416,69.176667 13.126451,37.356697 l 3.535807,17.677615 17.677724,3.53526 z"
           style="fill:#e6e6e6;fill-rule:evenodd;stroke:#b3b3b3;stroke-width:1.15020227;stroke-linecap:round;stroke-linejoin:round;stroke-miterlimit:4;stroke-opacity:1;stroke-dasharray:none"
           inkscape:connector-curvature="0" /></g></g><g
       id="g4001" /><g
       id="g4003" /><g
       id="g4005" /><g
       id="g4007" /><g
       id="g4009" /><g
       id="g4011" /><g
       id="g4013" /><g
       id="g4015" /><g
       id="g4017" /><g
       id="g4019" /><g
       id="g4021" /><g
       id="g4023" /><g
       id="g4025" /><g
       id="g4027" /><g
       id="g4029" /></g></svg>